<?xml version="1.0" encoding="UTF-8" standalone="no"?>
<svg width="99px" height="70px" viewBox="0 0 99 70" version="1.1" xmlns="http://www.w3.org/2000/svg" xmlns:xlink="http://www.w3.org/1999/xlink" xmlns:sketch="http://www.bohemiancoding.com/sketch/ns">
    <!-- Generator: Sketch Beta 3.1 (8620) - http://www.bohemiancoding.com/sketch -->
    <title>car_2_go</title>
    <desc>Created with Sketch Beta.</desc>
    <defs>
        <path id="path-1" d="M49.01,0.25 L0.26,0.25 L0.26,40.25 L0.26,42.75 L0.26,45.224 L49.01,45.224 L49.01,0.25 Z"></path>
        <path id="path-3" d="M49.01,0.25 L0.26,0.25 L0.26,40.25 L0.26,42.75 L0.26,45.224 L49.01,45.224 L49.01,0.25 Z"></path>
        <path id="path-5" d="M49.01,0.25 L0.26,0.25 L0.26,40.25 L0.26,42.75 L0.26,45.224 L49.01,45.224 L49.01,0.25 Z"></path>
    </defs>
    <g id="Page-1" stroke="none" stroke-width="1" fill="none" fill-rule="evenodd" sketch:type="MSPage">
        <g id="car_2_go" sketch:type="MSLayerGroup" transform="translate(2.000000, -11.000000)">
            <path d="M87.51,54 L7.51,54 L2.51,70.25 L87.51,70.25 L87.51,54 Z" id="Shape" fill="#F9F8F6" sketch:type="MSShapeGroup"></path>
            <path d="M95.01,68.992 L85.01,69 C85.01,69 85.01,54 70.01,54 C55.01,54 55.01,69 55.01,69 L35.01,69 C35.01,69 35.01,54 20.01,54 C5.01,54 5.01,69 5.01,69 L0.01,69 C0.01,59 5.01,54 5.01,54 C5.01,39 15.01,34 15.01,34 L10.01,29 L60.01,29 L75.01,44 C85.01,44 95.01,54 95.01,68.992 L95.01,68.992 Z" id="Shape" stroke="#BBBBBB" stroke-width="2.5" fill="#F9F8F6" sketch:type="MSShapeGroup"></path>
            <circle id="Oval" stroke="#BBBBBB" stroke-width="2.5" fill="#F9F8F6" sketch:type="MSShapeGroup" cx="20" cy="69" r="10"></circle>
            <circle id="Oval" stroke="#BBBBBB" stroke-width="2.5" fill="#F9F8F6" sketch:type="MSShapeGroup" cx="70" cy="69" r="10"></circle>
            <path d="M65.01,34.001 L57.509,34 L35.01,34 C25.01,34 25.01,44 25.01,44 L75.01,44" id="Shape" stroke="#BBBBBB" stroke-width="2.5" sketch:type="MSShapeGroup"></path>
            <path d="M40.01,34 L40.01,44" id="Shape" stroke="#BBBBBB" stroke-width="2.5" sketch:type="MSShapeGroup"></path>
            <path d="M5.01,49 L7.51,49 C8.891,49 10.01,47.881 10.01,46.5 C10.01,45.119 8.891,44 7.51,44" id="Shape" stroke="#BBBBBB" stroke-width="2.5" sketch:type="MSShapeGroup"></path>
            <g id="zebra_2_" transform="translate(41.000000, 0.000000)">
                <g id="Clipped">
                    <mask id="mask-2" sketch:name="SVGID_7_" fill="white">
                        <use xlink:href="#path-1"></use>
                    </mask>
                    <g id="SVGID_7_"></g>
                    <path d="M27.76,37.75 L7.76,37.75 L12.76,24 L27.76,24 L27.76,37.75 Z" id="Shape" fill="#F9F8F6" sketch:type="MSShapeGroup" mask="url(#mask-2)"></path>
                </g>
                <g id="Clipped">
                    <mask id="mask-4" sketch:name="SVGID_9_" fill="white">
                        <use xlink:href="#path-3"></use>
                    </mask>
                    <g id="SVGID_9_"></g>
                    <g id="Group" mask="url(#mask-4)" sketch:type="MSShapeGroup">
                        <g transform="translate(-2.000000, 13.000000)">
                            <path d="M-0.24,28.582 C8.258,28.582 13.547,17.102 14.76,12.25 C17.26,2.25 22.26,-0.25 27.26,-0.25 C32.26,-0.25 36.01,1 36.01,1 L34.703,7.57 C34.703,7.57 32.975,6.488 30.797,6.488" id="Shape" stroke="#BBBBBB" stroke-width="2.5" fill="#F9F8F6"></path>
                            <path d="M22.26,12.25 C22.26,12.25 22.26,23.5 12.26,31 C12.26,31 28.055,39.17 36.01,31.215 C36.01,31.215 32.588,27.245 32.588,21.058" id="Shape" stroke="#BBBBBB" stroke-width="2.5" fill="#F9F8F6"></path>
                            <path d="M29.053,12.219 C27.1,14.172 27.1,17.337 29.053,19.29 C30.175,20.413 31.699,20.868 33.162,20.699 L33.162,20.72 L33.348,20.681 C33.494,20.66 33.635,20.627 33.779,20.592 L45.311,18.223 L45.311,18.221 C45.831,18.148 46.332,17.921 46.731,17.523 C47.708,16.545 47.708,14.962 46.731,13.987 C46.358,13.614 45.896,13.385 45.413,13.299 L45.414,13.297 L37.009,9.568 L36.125,8.683 C33.196,5.753 28.447,5.754 25.519,8.683 L20.215,8.683 C20.215,8.683 22.867,14.871 25.519,12.218" id="Shape" stroke="#BBBBBB" stroke-width="2.5" fill="#F9F8F6"></path>
                            <circle id="Oval" stroke="none" fill="#BBBBBB" cx="33.25" cy="13.25" r="1.25"></circle>
                            <path d="M18.51,24.934 C18.51,24.934 18.617,25.041 18.864,25.194 C19.458,25.559 20.859,26.184 23.51,26.184" id="Shape" stroke="#BBBBBB" stroke-width="2.5" fill="#F9F8F6"></path>
                            <path d="M21.01,19.934 C21.01,19.934 22.26,21.184 24.76,21.184" id="Shape" stroke="#BBBBBB" stroke-width="2.5" fill="#F9F8F6"></path>
                        </g>
                    </g>
                </g>
                <g id="Clipped">
                    <mask id="mask-6" sketch:name="SVGID_11_" fill="white">
                        <use xlink:href="#path-5"></use>
                    </mask>
                    <g id="SVGID_11_"></g>
                    <path d="M37.75,45.224 L7.864,45.224 L7.864,42.75 L35.885,42.75 L37.75,45.224 Z" id="Shape" fill="#BBBBBB" sketch:type="MSShapeGroup" mask="url(#mask-6)"></path>
                </g>
            </g>
        </g>
    </g>
</svg>